#tb 0: 1/30000
0,          0,          0,        0,   518400, 0x8f882e4d
0,       1001,       1001,        0,   518400, 0xc5694144
0,       2002,       2002,        0,   518400, 0xcf0e9e3a
0,       3003,       3003,        0,   518400, 0xf620e459
0,       4004,       4004,        0,   518400, 0x4566453e
